Coordinates
version=1
nRows=22
nColumns=24
inDegrees=yes

Units are S.I. units (second, meters, Newtons, ...)
Angles are in degrees.

endheader
time	pelvis_tilt	pelvis_list	pelvis_rotation	pelvis_tx	pelvis_ty	pelvis_tz	hip_flexion_r	hip_adduction_r	hip_rotation_r	knee_angle_r	ankle_angle_r	subtalar_angle_r	mtp_angle_r	hip_flexion_l	hip_adduction_l	hip_rotation_l	knee_angle_l	ankle_angle_l	subtalar_angle_l	mtp_angle_l	lumbar_extension	lumbar_bending	lumbar_rotation
      3.41500000	    -13.36291758	     11.87126832	     -8.32462490	     -0.76934503	     -0.01404268	      0.03137470	     22.80647050	    -18.31451497	     -1.61313600	    -59.63052138	    -23.50648611	     11.26120371	     39.15575641	     21.58251774	     11.99689387	    -16.55482130	     -3.84785447	    -12.43990937	      4.61986865	     10.25762149	     14.29078876	    -13.86137199	      5.77791393
      3.42000000	    -13.29441246	     11.66193495	     -8.13931645	     -0.76392886	     -0.01326975	      0.03040045	     23.31896365	    -18.06842092	     -1.52501049	    -60.12488680	    -22.96814873	     11.59713069	     39.48245259	     21.03470776	     12.01046069	    -16.29011954	     -3.68672054	    -12.15639783	      4.81410935	     10.29855286	     14.16007548	    -13.68139872	      5.41380347
      3.42500000	    -13.13647844	     11.42799914	     -7.91871369	     -0.75853579	     -0.01235454	      0.02936677	     23.67996220	    -17.82901528	     -1.51460988	    -60.48822451	    -22.54610989	     11.81858438	     40.36690539	     20.37189518	     12.03230454	    -15.89501292	     -3.51599971	    -11.85901584	      4.96958207	     10.09569741	     13.91242912	    -13.50121632	      4.98256624
      3.43000000	    -13.10304271	     11.19964131	     -7.71290653	     -0.75323665	     -0.01165507	      0.02836758	     24.20848469	    -17.55102543	     -1.45133676	    -60.87586897	    -22.02035108	     12.22812874	     40.70331033	     19.87837289	     12.01554745	    -15.59498449	     -3.37697323	    -11.61425825	      5.06824536	     10.16740632	     13.81020571	    -13.29561663	      4.61344632
      3.43500000	    -13.04679762	     10.95801486	     -7.45869953	     -0.74793751	     -0.01092894	      0.02731388	     24.66988179	    -17.28381870	     -1.45197762	    -61.18624932	    -21.51860048	     12.65421416	     41.10843709	     19.35365353	     12.00309541	    -15.22672823	     -3.23771296	    -11.37913641	      5.15515951	     10.19075699	     13.67040380	    -13.09461180	      4.18898129
      3.44000000	    -12.90196494	     10.70138288	     -7.16038682	     -0.74267363	     -0.01010053	      0.02619755	     24.98764924	    -17.04174552	     -1.55046859	    -61.39331997	    -21.08289226	     12.87713052	     41.93279501	     18.72269551	     12.00674857	    -14.66938748	     -3.10348364	    -11.14314942	      5.09444324	      9.95872346	     13.41307865	    -12.90629664	      3.71488502
      3.44500000	    -12.87957974	     10.44786990	     -6.91512922	     -0.73744471	     -0.00944288	      0.02516402	     25.47379205	    -16.73755897	     -1.54379332	    -61.60139882	    -20.59554204	     13.26815793	     42.25442078	     18.25345172	     11.95694614	    -14.34448456	     -2.98849152	    -10.90988148	      5.18726165	      9.98235451	     13.31571533	    -12.67771977	      3.30922271
      3.45000000	    -12.83946402	     10.18592694	     -6.64211896	     -0.73217787	     -0.00881730	      0.02410148	     25.90911697	    -16.45195245	     -1.61596251	    -61.75850026	    -20.07201209	     13.58018300	     42.52788235	     17.76733074	     11.90592583	    -13.98028250	     -2.89022424	    -10.64741713	      5.25248161	     10.00435084	     13.20518998	    -12.44890557	      2.93346520
      3.45500000	    -12.78412952	      9.91521872	     -6.33680206	     -0.72696023	     -0.00817704	      0.02301152	     26.30644331	    -16.17139619	     -1.72711943	    -61.85881423	    -19.57463228	     13.84219076	     42.77941299	     17.27078355	     11.84942634	    -13.56486908	     -2.80541833	    -10.39920534	      5.31171036	      9.99066093	     13.06365079	    -12.22548665	      2.49421257
      3.46000000	    -12.70860071	      9.63685747	     -6.00926330	     -0.72180427	     -0.00750691	      0.02191417	     26.66601530	    -15.88997900	     -1.86772935	    -61.90370788	    -19.10402353	     14.00947710	     42.99536025	     16.75885220	     11.78495228	    -13.10038574	     -2.73178839	    -10.16991268	      5.35426016	      9.91702139	     12.88636844	    -12.00412567	      2.00950254
      3.46500000	    -12.65872800	      9.36061261	     -5.71395539	     -0.71657496	     -0.00693383	      0.02082423	     27.05240689	    -15.60389551	     -2.01060136	    -61.91131187	    -18.59368327	     14.11662833	     43.12372975	     16.28137252	     11.70677329	    -12.70802055	     -2.66730731	     -9.89764977	      5.38955202	      9.89648867	     12.76922053	    -11.76130193	      1.64552578
      3.47000000	    -12.59081329	      9.07967458	     -5.38150215	     -0.71143845	     -0.00632476	      0.01972924	     27.40381184	    -15.32233353	     -2.18576526	    -61.87013935	    -18.10928737	     14.13347355	     43.16490894	     15.79522199	     11.62373323	    -12.26371548	     -2.61810782	     -9.65752399	      5.43976080	      9.83460655	     12.60996836	    -11.53155164	      1.17739400
      3.47500000	    -12.54530458	      8.79782760	     -5.07800238	     -0.70624539	     -0.00579551	      0.01864991	     27.77714447	    -15.03227230	     -2.36038696	    -61.78820957	    -17.60341219	     14.10009500	     43.13720916	     15.33890948	     11.52484885	    -11.87534671	     -2.57563146	     -9.38342703	      5.48086919	      9.82115367	     12.49995323	    -11.28367856	      0.82423351
      3.48000000	    -12.47784323	      8.51271524	     -4.74125988	     -0.70113005	     -0.00523476	      0.01756596	     28.11112346	    -14.74785484	     -2.56529881	    -61.66234170	    -17.11145717	     13.96862910	     42.97683044	     14.86810142	     11.42321719	    -11.44351461	     -2.54534926	     -9.14127656	      5.52893939	      9.76389678	     12.35026374	    -11.04852729	      0.36509128
      3.48500000	    -12.42304806	      8.22901634	     -4.42396528	     -0.69599440	     -0.00472381	      0.01648031	     28.45371288	    -14.45860602	     -2.76499788	    -61.48992889	    -16.61255097	     13.79506888	     42.72966609	     14.41638686	     11.31244607	    -11.03738633	     -2.51913000	     -8.88208602	      5.56229002	      9.72179408	     12.22552164	    -10.79907259	     -0.03192941
      3.49000000	    -12.32401737	      7.97262282	     -4.07957616	     -0.69087968	     -0.00423513	      0.01535483	     28.73821607	    -14.23124223	     -3.01567778	    -61.30084688	    -16.04908078	     13.60243187	     42.21132872	     13.92544148	     11.23992860	    -10.60167988	     -2.50644211	     -8.61597993	      5.55439334	      9.60910317	     12.05238220	    -10.58673795	     -0.42253420
      3.49500000	    -12.26423132	      7.69231476	     -3.78872645	     -0.68573381	     -0.00377658	      0.01431341	     29.06185885	    -13.92725962	     -3.18234550	    -61.06003733	    -15.49698659	     13.48683856	     41.42818712	     13.46583944	     11.11403937	    -10.17571709	     -2.47107606	     -8.34754279	      5.54121337	      9.48476284	     11.94346942	    -10.33032691	     -0.76311395
      3.50000000	    -12.28650611	      7.42494707	     -3.50297097	     -0.68067500	     -0.00345633	      0.01331241	     29.48406846	    -13.62284768	     -3.35670751	    -60.75768865	    -15.04501823	     13.08197716	     41.21899174	     13.12747472	     10.97911821	     -9.85031137	     -2.46557654	     -8.09031207	      5.60604678	      9.55795130	     11.92276534	    -10.07910748	     -1.06248243
      3.50500000	    -12.27266053	      7.15229798	     -3.17801859	     -0.67562174	     -0.00311320	      0.01225982	     29.83354318	    -13.34358894	     -3.58595756	    -60.40305960	    -14.57738335	     12.66125529	     40.88845928	     12.74643807	     10.84868532	     -9.47408915	     -2.45809590	     -7.84056359	      5.65887186	      9.59125443	     11.85573952	     -9.83618644	     -1.42390123
      3.51000000	    -12.14102914	      6.90712022	     -2.82412586	     -0.67052858	     -0.00268079	      0.01114194	     30.02695669	    -13.13630073	     -3.85291372	    -60.03726922	    -13.98052711	     12.45549705	     39.84549216	     12.20957550	     10.76923562	     -8.99812165	     -2.41091071	     -7.61010016	      5.61553595	      9.40420938	     11.66169386	     -9.63623675	     -1.83528325
      3.51500000	    -12.17468222	      6.65417097	     -2.55631358	     -0.66558701	     -0.00245527	      0.01018584	     30.44353373	    -12.83048673	     -4.00276675	    -59.60782649	    -13.54461468	     11.95436381	     39.45533633	     11.89971023	     10.63050065	     -8.70844376	     -2.40735304	     -7.36465683	      5.65314835	      9.42682528	     11.65340716	     -9.39597350	     -2.15530634
      3.52000000	    -12.10763512	      6.42751717	     -2.20982131	     -0.66061752	     -0.00219406	      0.00912967	     30.71024005	    -12.62532038	     -4.25037179	    -59.15969095	    -13.01128706	     11.58781226	     38.68200690	     11.46389021	     10.54022132	     -8.27503882	     -2.39494166	     -7.08876544	      5.69865327	      9.35360449	     11.52628443	     -9.20914416	     -2.52592211
